<svg width="526" height="163" viewBox="0 0 526 163" fill="none" xmlns="http://www.w3.org/2000/svg">
<path d="M185.581 125.882C185.581 131.914 183.394 136.617 179.019 139.992C174.644 143.367 168.706 145.054 161.206 145.054C153.081 145.054 146.831 144.007 142.456 141.914V134.226C145.269 135.414 148.331 136.351 151.644 137.039C154.956 137.726 158.238 138.07 161.488 138.07C166.8 138.07 170.8 137.07 173.488 135.07C176.175 133.039 177.519 130.226 177.519 126.632C177.519 124.257 177.034 122.32 176.066 120.82C175.128 119.289 173.534 117.882 171.284 116.601C169.066 115.32 165.675 113.867 161.113 112.242C154.738 109.96 150.175 107.257 147.425 104.132C144.706 101.007 143.347 96.9291 143.347 91.8979C143.347 86.6166 145.331 82.4135 149.3 79.2885C153.269 76.1635 158.519 74.601 165.05 74.601C171.863 74.601 178.128 75.851 183.847 78.351L181.363 85.2885C175.706 82.9135 170.206 81.726 164.863 81.726C160.644 81.726 157.347 82.6323 154.972 84.4448C152.597 86.2573 151.409 88.7729 151.409 91.9916C151.409 94.3666 151.847 96.3198 152.722 97.851C153.597 99.351 155.066 100.742 157.128 102.023C159.222 103.273 162.409 104.664 166.691 106.195C173.878 108.757 178.816 111.507 181.503 114.445C184.222 117.382 185.581 121.195 185.581 125.882ZM218.956 145.054C211.519 145.054 205.753 142.773 201.659 138.21C197.597 133.617 195.566 127.132 195.566 118.757C195.566 110.164 197.628 103.523 201.753 98.8354C205.909 94.1479 211.816 91.8041 219.472 91.8041C221.941 91.8041 224.409 92.0698 226.878 92.601C229.347 93.1323 231.284 93.7573 232.691 94.476L230.3 101.085C228.581 100.398 226.706 99.8354 224.675 99.3979C222.644 98.9291 220.847 98.6948 219.284 98.6948C208.847 98.6948 203.628 105.351 203.628 118.664C203.628 124.976 204.894 129.82 207.425 133.195C209.988 136.57 213.769 138.257 218.769 138.257C223.05 138.257 227.441 137.335 231.941 135.492V142.382C228.503 144.164 224.175 145.054 218.956 145.054ZM267.613 91.8041C269.894 91.8041 271.941 91.9916 273.753 92.3666L272.675 99.5854C270.55 99.1166 268.675 98.8823 267.05 98.8823C262.894 98.8823 259.331 100.57 256.363 103.945C253.425 107.32 251.956 111.523 251.956 116.554V144.117H244.175V92.7416H250.597L251.488 102.257H251.863C253.769 98.9135 256.066 96.3354 258.753 94.5229C261.441 92.7104 264.394 91.8041 267.613 91.8041ZM290.675 92.7416V126.07C290.675 130.257 291.628 133.382 293.534 135.445C295.441 137.507 298.425 138.539 302.488 138.539C307.863 138.539 311.784 137.07 314.253 134.132C316.753 131.195 318.003 126.398 318.003 119.742V92.7416H325.784V144.117H319.363L318.238 137.226H317.816C316.222 139.757 314.003 141.695 311.159 143.039C308.347 144.382 305.128 145.054 301.503 145.054C295.253 145.054 290.566 143.57 287.441 140.601C284.347 137.632 282.8 132.882 282.8 126.351V92.7416H290.675ZM407.816 144.117V110.695C407.816 106.601 406.941 103.539 405.191 101.507C403.441 99.4448 400.722 98.4135 397.034 98.4135C392.191 98.4135 388.613 99.8041 386.3 102.585C383.988 105.367 382.831 109.648 382.831 115.429V144.117H375.05V110.695C375.05 106.601 374.175 103.539 372.425 101.507C370.675 99.4448 367.941 98.4135 364.222 98.4135C359.347 98.4135 355.769 99.8823 353.488 102.82C351.238 105.726 350.113 110.507 350.113 117.164V144.117H342.331V92.7416H348.659L349.925 99.7729H350.3C351.769 97.2729 353.831 95.3198 356.488 93.9135C359.175 92.5073 362.175 91.8041 365.488 91.8041C373.519 91.8041 378.769 94.7104 381.238 100.523H381.613C383.144 97.8354 385.363 95.7104 388.269 94.1479C391.175 92.5854 394.488 91.8041 398.206 91.8041C404.019 91.8041 408.363 93.3041 411.238 96.3041C414.144 99.2729 415.597 104.039 415.597 110.601V144.117H407.816Z" fill="black"/>
<path d="M422.863 162.164C419.925 162.164 417.613 161.742 415.925 160.898V154.101C418.144 154.726 420.456 155.039 422.863 155.039C425.956 155.039 428.3 154.101 429.894 152.226C431.519 150.351 432.331 147.648 432.331 144.117V75.5854H440.3V143.46C440.3 149.398 438.8 153.992 435.8 157.242C432.8 160.523 428.488 162.164 422.863 162.164ZM497.206 125.882C497.206 131.914 495.019 136.617 490.644 139.992C486.269 143.367 480.331 145.054 472.831 145.054C464.706 145.054 458.456 144.007 454.081 141.914V134.226C456.894 135.414 459.956 136.351 463.269 137.039C466.581 137.726 469.863 138.07 473.113 138.07C478.425 138.07 482.425 137.07 485.113 135.07C487.8 133.039 489.144 130.226 489.144 126.632C489.144 124.257 488.659 122.32 487.691 120.82C486.753 119.289 485.159 117.882 482.909 116.601C480.691 115.32 477.3 113.867 472.738 112.242C466.363 109.96 461.8 107.257 459.05 104.132C456.331 101.007 454.972 96.9291 454.972 91.8979C454.972 86.6166 456.956 82.4135 460.925 79.2885C464.894 76.1635 470.144 74.601 476.675 74.601C483.488 74.601 489.753 75.851 495.472 78.351L492.988 85.2885C487.331 82.9135 481.831 81.726 476.488 81.726C472.269 81.726 468.972 82.6323 466.597 84.4448C464.222 86.2573 463.034 88.7729 463.034 91.9916C463.034 94.3666 463.472 96.3198 464.347 97.851C465.222 99.351 466.691 100.742 468.753 102.023C470.847 103.273 474.034 104.664 478.316 106.195C485.503 108.757 490.441 111.507 493.128 114.445C495.847 117.382 497.206 121.195 497.206 125.882Z" fill="#F7DF1E"/>
<path d="M70.3185 100.9L52.3685 82.95L45.3185 90L70.3185 115L115.318 70L108.268 62.9L70.3185 100.9Z" fill="black"/>
<path d="M125.318 25H110.318V20C110.318 17.3478 109.265 14.8043 107.39 12.9289C105.514 11.0535 102.971 9.99997 100.318 9.99997H60.3185C57.6663 9.99997 55.1228 11.0535 53.2474 12.9289C51.372 14.8043 50.3185 17.3478 50.3185 20V25H35.3185C32.6663 25 30.1227 26.0535 28.2474 27.9289C26.372 29.8043 25.3185 32.3478 25.3185 35V140C25.3185 142.652 26.372 145.196 28.2474 147.071C30.1227 148.946 32.6663 150 35.3185 150H125.318C127.971 150 130.514 148.946 132.39 147.071C134.265 145.196 135.318 142.652 135.318 140V35C135.318 32.3478 134.265 29.8043 132.39 27.9289C130.514 26.0535 127.971 25 125.318 25V25ZM60.3185 20H100.318V40H60.3185V20ZM125.318 140H35.3185V35H50.3185V50H110.318V35H125.318V140Z" fill="black"/>
</svg>
